HIERARCHY
ROOT Hips
{
	OFFSET -0.001795 -0.223333 0.028219
	CHANNELS 6 Xposition Yposition Zposition Zrotation Yrotation Xrotation 
	JOINT LeftUpLeg
	{
		OFFSET 0.069520 -0.091406 -0.006815
		CHANNELS 3 Zrotation Yrotation Xrotation
		JOINT LeftLeg
		{
			OFFSET 0.034277 -0.375199 -0.004496
			CHANNELS 3 Zrotation Yrotation Xrotation
			JOINT LeftFoot
			{
				OFFSET -0.013596 -0.397961 -0.043693
				CHANNELS 3 Zrotation Yrotation Xrotation
				JOINT LeftToe
				{
					OFFSET 0.026358 -0.055791 0.119288
					CHANNELS 3 Zrotation Yrotation Xrotation
					End Site
					{
						OFFSET 0.000000 0.000000 0.000000
					}
				}
			}
		}
	}
	JOINT RightUpLeg
	{
		OFFSET -0.067670 -0.090522 -0.004320
		CHANNELS 3 Zrotation Yrotation Xrotation
		JOINT RightLeg
		{
			OFFSET -0.038290 -0.382569 -0.008850
			CHANNELS 3 Zrotation Yrotation Xrotation
			JOINT RightFoot
			{
				OFFSET 0.015774 -0.398415 -0.042312
				CHANNELS 3 Zrotation Yrotation Xrotation
				JOINT RightToe
				{
					OFFSET -0.025372 -0.048144 0.123348
					CHANNELS 3 Zrotation Yrotation Xrotation
					End Site
					{
						OFFSET 0.000000 0.000000 0.000000
					}
				}
			}
		}
	}
	JOINT Spine
	{
		OFFSET -0.002533 0.108963 -0.026696
		CHANNELS 3 Zrotation Yrotation Xrotation
		JOINT Spine1
		{
			OFFSET 0.005487 0.135180 0.001092
			CHANNELS 3 Zrotation Yrotation Xrotation
			JOINT Spine2
			{
				OFFSET 0.001457 0.052922 0.025425
				CHANNELS 3 Zrotation Yrotation Xrotation
				JOINT Neck
				{
					OFFSET -0.002778 0.213870 -0.042857
					CHANNELS 3 Zrotation Yrotation Xrotation
					JOINT Head
					{
						OFFSET 0.005152 0.064970 0.051349
						CHANNELS 3 Zrotation Yrotation Xrotation
						End Site
						{
							OFFSET 0.000000 0.000000 0.000000
						}
					}
				}
				JOINT LeftShoulder
				{
					OFFSET 0.078845 0.121749 -0.034090
					CHANNELS 3 Zrotation Yrotation Xrotation
					JOINT LeftArm
					{
						OFFSET 0.090977 0.030469 -0.008868
						CHANNELS 3 Zrotation Yrotation Xrotation
						JOINT LeftForeArm
						{
							OFFSET 0.259612 -0.012772 -0.027456
							CHANNELS 3 Zrotation Yrotation Xrotation
							JOINT LeftHand
							{
								OFFSET 0.249234 0.008986 -0.001171
								CHANNELS 3 Zrotation Yrotation Xrotation
								End Site
								{
									OFFSET 0.000000 0.000000 0.000000
								}
							}
						}
					}
				}
				JOINT RightShoulder
				{
					OFFSET -0.081759 0.118833 -0.038615
					CHANNELS 3 Zrotation Yrotation Xrotation
					JOINT RightArm
					{
						OFFSET -0.096012 0.032551 -0.009143
						CHANNELS 3 Zrotation Yrotation Xrotation
						JOINT RightForeArm
						{
							OFFSET -0.253742 -0.013329 -0.021401
							CHANNELS 3 Zrotation Yrotation Xrotation
							JOINT RightHand
							{
								OFFSET -0.255298 0.007772 -0.005559
								CHANNELS 3 Zrotation Yrotation Xrotation
								End Site
								{
									OFFSET 0.000000 0.000000 0.000000
								}
							}
						}
					}
				}
			}
		}
	}
}
MOTION
Frames: 7
Frame Time: 0.050000
0.000000 0.949947 0.000000 -3.503471 13.699638 -2.119550 3.396905 0.210737 10.288404 -0.990960 0.192780 -5.946721 1.377056 5.912819 6.292564 0.000000 0.000000 0.000000 1.955221 -0.396245 3.046787 -1.091379 0.281184 3.710120 2.795129 5.914397 3.061040 0.000000 0.000000 0.000000 0.904550 -0.019626 0.446041 2.859606 -1.147599 -2.357967 -4.314664 -4.120617 11.538903 7.259997 -2.530474 -19.425738 0.000000 0.000000 0.000000 -26.072973 -2.650820 -2.250031 -47.832576 1.888282 -6.549340 0.544033 -24.249674 0.697926 0.000000 0.000000 0.000000 22.616393 -2.472901 -2.079887 54.636561 3.956371 -4.508625 -0.484181 31.577940 1.505415 0.000000 0.000000 0.000000 
-0.000417 0.949068 0.001150 -3.183694 14.026321 -1.991170 3.441334 0.194571 10.201080 -1.188173 0.195563 -5.825173 2.129697 7.041102 5.911129 0.000000 0.000000 0.000000 0.998853 -0.359092 2.931766 -0.455838 0.169134 3.504131 3.397276 7.544281 2.715767 0.000000 0.000000 0.000000 0.699360 0.007279 -0.144564 2.589338 -1.094644 -1.593593 -5.021372 -5.283924 11.551143 7.872571 -2.743053 -21.088939 0.000000 0.000000 0.000000 -25.743267 -1.141387 -2.782757 -49.282594 1.646657 -6.785940 3.610052 -25.172566 0.106649 0.000000 0.000000 0.000000 22.772487 -3.072924 -2.739061 55.720133 2.653765 -5.084874 -0.762710 33.680600 1.486333 0.000000 0.000000 0.000000 
-0.000795 0.948739 0.002170 -2.813145 13.647938 -2.114431 3.366974 0.216212 10.058430 -1.192582 0.192345 -5.234704 1.977108 6.950891 6.341846 0.000000 0.000000 0.000000 0.486401 -0.430733 3.599875 -0.782118 0.209208 2.999251 4.189862 9.809123 2.079510 0.000000 0.000000 0.000000 0.570877 -0.013615 0.358542 2.433207 -0.910009 -2.788131 -4.973951 -6.187424 12.534035 6.059480 -1.973583 -20.267659 0.000000 0.000000 0.000000 -25.684518 -1.405028 -2.186389 -49.897618 2.042707 -7.242323 3.609565 -24.666797 0.185848 0.000000 0.000000 0.000000 21.847367 -2.289783 -2.489092 56.230491 3.046655 -4.962304 0.198138 32.331900 1.579626 0.000000 0.000000 0.000000 
-0.001195 0.949398 0.003198 -2.973196 14.110018 -2.809383 3.164342 0.251957 11.208684 -0.710586 0.174626 -5.307607 1.880667 6.549074 5.759756 0.000000 0.000000 0.000000 0.376068 -0.596310 4.908680 -0.289552 0.109386 2.266070 4.597339 10.602333 2.531925 0.000000 0.000000 0.000000 0.647289 -0.017037 0.475798 2.055656 -0.836321 -1.651186 -4.748220 -6.517600 11.982158 6.460532 -2.216786 -20.259480 0.000000 0.000000 0.000000 -25.940746 -0.904727 -2.494098 -49.948314 2.968166 -7.582368 4.035464 -25.361473 0.099006 0.000000 0.000000 0.000000 21.405594 -2.071139 -2.384627 56.684663 3.224000 -4.849559 -0.564851 30.765412 1.264523 0.000000 0.000000 0.000000 
-0.001673 0.950302 0.003881 -2.810861 14.531051 -2.899874 3.568142 0.185652 11.354768 -1.137260 0.188707 -5.465160 1.622870 6.558568 6.758757 0.000000 0.000000 0.000000 0.071830 -0.702194 5.794431 -0.059112 0.043781 1.224264 4.295016 9.699362 2.895193 0.000000 0.000000 0.000000 0.319832 -0.044212 1.134944 2.380826 -0.943434 -2.109456 -5.122056 -6.375836 11.921832 6.470018 -2.208926 -19.980361 0.000000 0.000000 0.000000 -26.082470 -0.806242 -2.733442 -49.686133 3.170402 -7.567727 3.422754 -25.164559 0.203312 0.000000 0.000000 0.000000 21.505378 -2.307870 -2.414954 56.571185 3.191131 -4.863034 -0.447790 28.861655 1.217030 0.000000 0.000000 0.000000 
-0.001962 0.950964 0.004324 -2.854567 15.192949 -2.975323 3.668945 0.148534 11.256493 -0.936072 0.177095 -5.315716 1.317855 5.979420 6.537588 0.000000 0.000000 0.000000 0.209772 -0.807810 6.510083 0.161753 -0.011585 0.459058 4.328011 9.697996 3.130351 0.000000 0.000000 0.000000 0.271676 -0.052941 1.350636 2.411213 -0.915700 -2.490616 -5.291375 -6.660660 12.306653 6.104665 -1.898356 -20.613485 0.000000 0.000000 0.000000 -26.009924 -0.171132 -3.144036 -49.443921 3.077399 -7.510180 2.295030 -24.983184 0.442802 0.000000 0.000000 0.000000 21.469153 -2.534156 -2.492165 56.511163 3.136708 -4.924694 -0.795650 27.623170 1.089143 0.000000 0.000000 0.000000 
-0.002091 0.951247 0.004471 -2.579354 15.506563 -3.000866 3.780014 0.123431 11.049122 -1.375579 0.187741 -5.097949 1.276749 6.071067 6.862817 0.000000 0.000000 0.000000 0.073676 -0.836024 6.748547 0.191407 -0.019842 0.334933 3.850403 8.603303 3.031674 0.000000 0.000000 0.000000 -0.004615 -0.074835 1.918572 2.325852 -0.840338 -2.839759 -5.543999 -6.723628 12.342206 6.088350 -1.863694 -20.669833 0.000000 0.000000 0.000000 -25.592253 0.115355 -3.310060 -49.687669 3.152437 -7.575939 2.041014 -24.499724 0.479434 0.000000 0.000000 0.000000 21.177087 -2.522401 -2.414186 56.740991 3.252303 -4.891765 -0.617940 25.871191 1.046999 0.000000 0.000000 0.000000 
